<svg width="139" height="139" viewBox="0 0 139 139" fill="none" xmlns="http://www.w3.org/2000/svg">
<path d="M115.538 23.4615C115.538 18.0348 113.383 12.8303 109.545 8.99305C105.708 5.15576 100.504 3 95.0769 3C89.6502 3 84.4457 5.15576 80.6084 8.99305C76.7712 12.8303 74.6154 18.0348 74.6154 23.4615C74.6382 28.8795 76.809 34.0673 80.6515 37.8869L37.8869 80.6515C34.0673 76.809 28.8795 74.6382 23.4615 74.6154C18.0348 74.6154 12.8303 76.7712 8.99305 80.6084C5.15576 84.4457 3 89.6502 3 95.0769C3 100.504 5.15576 105.708 8.99305 109.545C12.8303 113.383 18.0348 115.538 23.4615 115.538C23.4615 120.965 25.6173 126.17 29.4546 130.007C33.2919 133.844 38.4963 136 43.9231 136C49.3498 136 54.5543 133.844 58.3916 130.007C62.2289 126.17 64.3846 120.965 64.3846 115.538C64.3618 110.12 62.191 104.933 58.3485 101.113L101.113 58.3485C104.933 62.191 110.12 64.3618 115.538 64.3846C120.965 64.3846 126.17 62.2289 130.007 58.3916C133.844 54.5543 136 49.3498 136 43.9231C136 38.4963 133.844 33.2919 130.007 29.4546C126.17 25.6173 120.965 23.4615 115.538 23.4615Z" stroke="#A74B08" stroke-width="6" stroke-linecap="round" stroke-linejoin="round"/>
</svg>
