<svg width="149" height="149" viewBox="0 0 149 149" fill="none" xmlns="http://www.w3.org/2000/svg">
<path d="M117.32 31.6974C108.855 23.2321 98.0689 17.4673 86.3271 15.1318C74.5852 12.7963 62.4145 13.9951 51.3539 18.5766C40.2933 23.1581 30.8397 30.9165 24.1886 40.8708C17.5374 50.8251 13.9873 62.5281 13.9873 74.5C13.9873 86.4719 17.5374 98.1749 24.1886 108.129C30.8397 118.084 40.2933 125.842 51.3539 130.423C62.4145 135.005 74.5852 136.204 86.3271 133.868C98.0689 131.533 108.855 125.768 117.32 117.303C122.983 111.705 127.479 105.04 130.547 97.6927C133.616 90.3454 135.196 82.4623 135.196 74.5C135.196 66.5377 133.616 58.6546 130.547 51.3073C127.479 43.96 122.983 37.2947 117.32 31.6974ZM38.2686 38.2802C46.6497 29.8878 57.6936 24.6786 69.5004 23.549C68.3624 35.3553 63.1305 46.3915 54.711 54.7459C46.3453 63.1505 35.3068 68.3692 23.5025 69.5004C24.6418 57.6925 29.8637 46.6517 38.2686 38.2802ZM23.4734 78.8536C37.7708 77.712 51.189 71.4963 61.3054 61.3287C71.4794 51.2155 77.6998 37.7963 78.842 23.4966C90.8792 24.5002 102.172 29.7361 110.715 38.2751C119.258 46.8141 124.5 58.1039 125.509 70.1406C111.217 71.311 97.8041 77.5175 87.6608 87.6544C77.5175 97.7913 71.3025 111.2 70.1232 125.492C58.0859 124.488 46.7936 119.252 38.2503 110.713C29.707 102.174 24.4655 90.8845 23.4559 78.8478L23.4734 78.8536ZM110.731 110.72C102.349 119.11 91.3057 124.319 79.4997 125.451C80.6624 113.654 85.881 102.626 94.2658 94.246C102.651 85.8665 113.682 80.6549 125.48 79.4997C124.346 91.3053 119.13 102.346 110.731 110.72Z" fill="#A74B08"/>
</svg>
