<svg width="167" height="165" viewBox="0 0 167 165" fill="none" xmlns="http://www.w3.org/2000/svg">
<path d="M112.414 0.60443C110.773 1.48645 108.816 3.30406 107.317 5.76551C106.387 7.78095 103.215 13.7644 106.003 15.5856C109.42 16.0855 112.546 12.4557 114.127 9.9153C115.626 7.45349 116.345 4.88135 116.376 3.01839C116.465 -0.25331 114.554 -0.527558 112.414 0.60443ZM99.887 18.1224C93.7865 26.1381 88.8314 33.8988 83.7118 41.2035C79.5826 38.2114 75.4041 35.2881 71.1779 32.4347C63.672 28.792 63.0789 31.1599 61.1596 32.4626C67.3712 37.2673 73.5664 42.0877 79.6833 46.952L75.9862 52.2281C68.2128 46.0397 60.2852 39.9048 52.3375 33.7663C50.7225 34.1193 49.1215 34.5338 47.5381 35.009C49.5322 38.5208 51.4989 42.048 53.438 45.5904C59.1061 50.022 65.116 54.5285 71.1304 59.1575L67.4019 64.4775C65.2058 62.7822 63.0058 61.0919 60.8018 59.4068C63.8826 65.3545 66.8727 71.3551 69.7489 77.4075C76.9367 82.1187 85.6814 88.7131 92.0301 93.2768C93.4284 93.0089 94.8224 92.7293 96.2131 92.4422L89.6345 100.241C86.6054 100.778 83.5675 101.264 80.5221 101.698C81.2712 103.524 82.0032 105.355 82.7266 107.188C99.2912 105.056 115.664 101.635 131.696 96.9548C133.51 94.267 133.911 91.7545 131.216 89.6123C120.879 93.0543 110.329 95.9835 99.5314 98.3043L106.461 90.1108C109.83 89.2777 113.183 88.3843 116.52 87.4311C115.102 86.0386 113.671 84.6586 112.228 83.2914L116.389 78.3706C118.803 80.6574 121.183 82.98 123.528 85.3375C125.73 84.652 127.924 83.9422 130.11 83.2081C129.704 81.3923 129.219 79.5947 128.658 77.8203C126.431 75.8029 124.188 73.8021 121.93 71.8183L146.141 43.19C143.937 42.5126 142.192 40.945 141.286 39.0038L121.483 62.4813C114.763 51.9453 105.107 43.4714 93.6594 38.2089L105.012 22.009C102.796 21.5198 100.891 19.9318 99.887 18.1224ZM155.926 22.86C154.176 23.5017 151.982 25.0232 150.15 27.2486C148.946 29.1112 144.961 34.5891 147.462 36.7845C150.774 37.7615 154.382 34.6109 156.305 32.3194C158.138 30.0943 159.211 27.6497 159.506 25.8096C159.8 23.9695 159.384 23.106 158.992 22.7832C158.018 22.2225 156.794 22.5468 155.925 22.86H155.926ZM41.4762 37.4019C38.1904 35.9935 36.3954 37.0177 35.8823 40.1265C57.6778 78.2178 73.9441 118.418 87.4739 159.607C91.448 161.368 91.1727 158.965 92.1418 157.979C82.1882 116.013 63.2085 75.5774 41.4762 37.4019ZM92.5825 39.7459C102.496 47.1234 112.037 54.8056 121.269 62.7367L117.125 67.6488C108.029 59.8328 98.6409 52.2688 88.8939 45.0094L92.5825 39.7459ZM30.3952 43.4764C24.9496 41.9656 25.9319 45.549 24.9017 47.5873C52.1733 87.5226 61.9637 125.019 76.1601 162.56C79.1356 164.904 80.4578 163.404 81.2944 161.39C67.8879 120.61 51.823 80.9577 30.3952 43.4764ZM84.7116 50.9768C94.0393 58.4976 103.127 66.1476 111.735 74.0401L107.584 78.9602C99.1586 71.2262 90.2237 63.6912 81.0127 56.2554L84.7116 50.9768ZM20.0784 51.9274C16.7441 51.0004 15.905 53.0676 15.9935 56.2422C35.7334 91.2638 51.6516 125.425 63.3356 163.685C66.9449 165.821 68.4792 165.052 69.6532 163.52C55.6615 126.296 46.0242 90.1951 20.0784 51.9274ZM11.7209 61.7261C8.18401 67.1019 5.46491 72.9731 3.65251 79.1476L17.9382 73.0624C15.8982 69.2659 13.8257 65.487 11.7209 61.7261ZM76.2122 63.1055C85.3961 70.3195 94.335 77.8489 101.763 85.8614L97.58 90.8214C90.504 83.1299 81.6915 75.6981 72.4762 68.437L76.2122 63.1055ZM20.9636 78.7598L1.8918 86.8837C-0.197411 88.2375 -0.705164 90.4297 1.1241 93.8617L24.1597 84.9247C23.1054 82.864 22.0401 80.809 20.9636 78.7598ZM75.045 88.9106C76.0314 91.126 77.001 93.3488 77.9537 95.5789C79.7017 95.3423 81.4474 95.0884 83.1905 94.8173C80.5624 92.9033 77.7848 90.8757 75.045 88.9106ZM27.0691 90.6903L12.6525 96.2831C18.5859 96.9531 24.5398 97.4268 30.5045 97.7033C29.3754 95.3579 28.23 93.0202 27.0691 90.6903ZM1.12018 101.241C0.477094 103.149 -0.958326 104.854 1.73898 107.338C13.1488 108.746 24.6248 109.552 36.1194 109.754C35.29 107.914 34.4501 106.079 33.5996 104.249C23.0267 103.895 12.2083 102.918 1.12018 101.241ZM131.417 103.727C116.233 108.049 100.757 111.268 85.1083 113.357C85.7742 115.128 86.4277 116.904 87.0686 118.684C101.258 116.941 115.71 114.179 130.501 110.141C132.84 108.405 134.201 106.466 131.417 103.727ZM3.08084 113.974C2.09533 115.259 0.273207 116.293 4.52769 118.805C16.5863 120.044 28.7431 120.845 41.048 121.041C40.3685 119.431 39.6804 117.826 38.9838 116.224C26.9843 116.12 14.9994 115.37 3.08084 113.974ZM128.692 117.271C121.938 119.032 115.126 120.566 108.269 121.87L125.191 128.234C128.649 129.357 136.113 132.501 135.691 135.727C134.849 140.7 125.866 139.705 123.362 143.451C122.673 144.596 122.351 146.142 122.583 147.566C129.347 161.928 149.459 163.939 163.555 164.309C169.121 164.652 167.167 159.058 163.159 158.947C154.339 157.587 132.774 156.727 130.926 148.54C130.045 143.177 142.576 142.55 142.555 137.115C142.528 129.893 133.167 124.051 126.984 122.05C127.615 120.48 128.185 118.886 128.692 117.271ZM95.674 124C93.5337 124.317 91.3902 124.612 89.2439 124.885C89.9741 127.024 90.6846 129.168 91.3745 131.317L114.772 141.517C117.645 140.617 121.986 140.82 120.975 133.516L95.674 124ZM7.26106 125.536C8.97698 129.167 11.0245 132.632 13.3777 135.887L13.217 126.068C11.2281 125.902 9.24243 125.726 7.26106 125.536ZM19.6532 126.557L19.9327 143.616C20.9511 149.394 23.8912 149.356 26.8099 149.648L26.8406 126.991C24.4435 126.867 22.0475 126.722 19.6528 126.557H19.6532ZM33.2679 127.269L33.2314 153.958C34.6258 157.391 36.6461 159.342 40.1979 157.513L39.6694 127.445C37.5351 127.404 35.4012 127.345 33.2679 127.269ZM46.2095 133.788L46.6683 159.939C49.7738 160.917 52.9482 161.661 56.1649 162.163C53.1605 152.598 49.8402 143.134 46.2095 133.788ZM93.8697 139.417C95.3745 144.511 96.7561 149.64 98.0131 154.801C102.262 152.445 106.236 149.623 109.86 146.388L93.8697 139.417Z" fill="#F28F8F"/>
</svg>
