<!--?xml version="1.0" standalone="no"?-->
              <svg id="sw-js-blob-svg" viewBox="0 0 100 100" xmlns="http://www.w3.org/2000/svg" version="1.1">
                    <defs> 
                        <linearGradient id="sw-gradient" x1="0" x2="1" y1="1" y2="0">
                            <stop id="stop1" stop-color="rgba(248, 117, 55, 1)" offset="0%"></stop>
                            <stop id="stop2" stop-color="rgba(251, 168, 31, 1)" offset="100%"></stop>
                        </linearGradient>
                    </defs>
                <path fill="url(#sw-gradient)" d="M19.9,-28.2C25.1,-23.6,28.2,-16.9,30.8,-9.8C33.5,-2.7,35.7,4.8,33.5,10.6C31.3,16.5,24.7,20.7,18.3,26.5C12,32.4,6,40,-1.7,42.4C-9.5,44.7,-19,42,-25.1,36C-31.2,30.1,-33.9,21,-36.6,12C-39.4,3.1,-42.2,-5.8,-40.8,-14.3C-39.5,-22.8,-34,-31.1,-26.5,-34.9C-19,-38.8,-9.5,-38.3,-1.1,-36.8C7.3,-35.3,14.7,-32.8,19.9,-28.2Z" width="100%" height="100%" transform="translate(50 50)" stroke-width="0" style="transition: all 0.3s ease 0s;"></path>
              </svg>