<svg width="70" height="70" viewBox="0 0 70 70" fill="none" xmlns="http://www.w3.org/2000/svg">
<path d="M56.8751 24.4371V24.0625C56.8751 18.2609 54.5704 12.6969 50.468 8.59454C46.3657 4.49218 40.8017 2.1875 35.0001 2.1875C29.1984 2.1875 23.6345 4.49218 19.5321 8.59454C15.4297 12.6969 13.1251 18.2609 13.1251 24.0625V24.4371C11.665 24.9528 10.4344 25.9681 9.65067 27.3035C8.86697 28.639 8.58073 30.2085 8.84256 31.7347C9.10439 33.2608 9.89741 34.6452 11.0814 35.643C12.2654 36.6409 13.7641 37.188 15.3126 37.1875H16.2313L33.0997 66.7188C33.2908 67.0541 33.5674 67.3329 33.9011 67.5268C34.2349 67.7207 34.614 67.8229 35.0001 67.8229C35.3861 67.8229 35.7652 67.7207 36.099 67.5268C36.4328 67.3329 36.7093 67.0541 36.9004 66.7188L53.7688 37.1875H54.6876C56.236 37.188 57.7347 36.6409 58.9187 35.643C60.1027 34.6452 60.8957 33.2608 61.1576 31.7347C61.4194 30.2085 61.1331 28.639 60.3495 27.3035C59.5658 25.9681 58.3351 24.9528 56.8751 24.4371ZM35.0001 61.2172L21.2708 37.1875H26.5426L37.636 56.6016L35.0001 61.2172ZM40.1571 52.1938L31.5821 37.1875H36.8567L42.793 47.5781L40.1571 52.1938ZM45.3114 43.1703L41.8934 37.1875H48.7294L45.3114 43.1703Z" fill="white"/>
</svg>
